<svg width="24" height="24" viewBox="0 0 24 24" fill="none" xmlns="http://www.w3.org/2000/svg">
<g id="twitter-24-outlined">
<path id="icon" fill-rule="evenodd" clip-rule="evenodd" d="M4.7563 3.34149L4.02264 2.50302L3.26803 3.32269C2.87196 3.7529 2.57767 4.22243 2.37408 4.72961C2.08287 5.45504 2.00623 6.03651 2.00049 7.02223L2.00135 7.50454L2.00572 7.78428C2.07264 9.90417 2.90912 11.4543 4.51262 12.449L4.59876 12.5L4.55421 12.5092C4.38857 12.5369 4.20523 12.5519 4.00373 12.5519H3.00373V13.5519L3.00807 13.7401C3.08905 15.4692 4.29961 16.4225 6.40961 16.8045L6.59976 16.836L6.44102 16.8968C5.62423 17.1887 4.58917 17.4067 3.40672 17.5155L2.01234 17.6437L2.5861 18.921C3.1434 20.1617 4.36128 20.8716 5.99778 21.2287C6.9922 21.4457 7.86064 21.5005 9.00367 21.5005L9.27419 21.4974C14.7789 21.3746 20.5046 17.518 20.5046 11.5045L20.5038 9.117L20.5866 8.98497C20.593 8.97538 20.7298 8.77567 20.7698 8.71289L20.8433 8.59326C20.8875 8.5175 20.9222 8.44822 20.9478 8.37633L20.9628 8.324L22.5344 5.17651L21.1197 5.01129L20.6538 4.95123C20.3484 4.90802 20.0535 4.85852 19.7691 4.80276L19.6298 4.773L19.5243 4.67306C18.6903 3.92016 17.6482 3.50454 16.5045 3.50454L16.2858 3.50926C13.8983 3.61277 12.112 5.40739 12.009 7.78667L12.0038 7.983L11.9642 7.98028C9.5379 7.76258 7.16083 6.08949 4.7563 3.34149ZM16.5045 5.50454C17.2361 5.50454 17.8786 5.80157 18.3905 6.3633L18.6022 6.59562L18.9088 6.66504L19.3806 6.76466L19.4958 6.785L19.025 7.72464L18.9227 7.87539L18.7888 8.08787C18.7688 8.12204 18.7497 8.15606 18.7313 8.19061C18.5898 8.45575 18.5046 8.71076 18.5046 9.00454V11.5045C18.5046 16.2918 13.6181 19.5005 9.00367 19.5005L8.72302 19.4986C7.73548 19.4852 6.86004 19.3995 6.15384 19.2232L5.87176 19.144L6.09464 19.0901C8.45602 18.4908 10.004 17.3939 10.004 16.0045V15.0045H9.00402L8.7194 15.0027C7.04599 14.9804 5.98855 14.7582 5.44668 14.3639L5.42276 14.345L5.55044 14.3052C6.71013 13.9137 7.49268 13.1062 7.49268 12.2502V11.5188L6.79559 11.2972C4.90382 10.6959 4.06437 9.63485 4.00478 7.7283L4.00054 7.29029L4.00032 7.07199C4.00299 6.44569 4.0373 6.06846 4.14609 5.71186L4.16476 5.655L4.35237 5.84914C6.93034 8.47395 9.57752 10.0045 12.5042 10.0045C13.4097 10.0045 13.85 9.37418 13.9684 8.58917C13.9981 8.39244 14.0043 8.24276 14.0043 8.00454C14.0043 6.54693 15.0415 5.50454 16.5045 5.50454Z" fill="black"/>
</g>
</svg>
